<?xml version="1.0" standalone="no"?><!DOCTYPE svg PUBLIC "-//W3C//DTD SVG 1.1//EN" "http://www.w3.org/Graphics/SVG/1.1/DTD/svg11.dtd"><svg t="1578139399197" class="icon" viewBox="0 0 1177 1024" version="1.1" xmlns="http://www.w3.org/2000/svg" p-id="2492" xmlns:xlink="http://www.w3.org/1999/xlink" width="229.8828125" height="200"><defs><style type="text/css"></style></defs><path d="M1066.666667 1024h-956.321839a110.344828 110.344828 0 0 1-110.344828-110.344828V110.344828A110.344828 110.344828 0 0 1 110.344828 0h956.321839A110.344828 110.344828 0 0 1 1177.011494 110.344828v803.310344a110.344828 110.344828 0 0 1-110.344827 110.344828zM110.344828 73.563218a36.781609 36.781609 0 0 0-36.78161 36.78161v803.310344a36.781609 36.781609 0 0 0 36.78161 36.78161h956.321839a36.781609 36.781609 0 0 0 36.781609-36.78161V110.344828a36.781609 36.781609 0 0 0-36.781609-36.78161z" fill="#333333" p-id="2493"></path><path d="M1133.609195 254.528736H44.137931a36.781609 36.781609 0 0 1 0-73.563219h1089.471264a36.781609 36.781609 0 0 1 0 73.563219zM175.08046 603.954023A37.517241 37.517241 0 0 1 147.126437 592.91954a36.781609 36.781609 0 0 1 0-51.494253l166.988506-165.517241a36.781609 36.781609 0 0 1 52.229885 0 36.781609 36.781609 0 0 1 0 51.494253L200.827586 592.91954a36.781609 36.781609 0 0 1-25.747126 11.034483z" fill="#333333" p-id="2494"></path><path d="M340.597701 769.471264a37.517241 37.517241 0 0 1-26.482758-11.034482L147.126437 592.91954a36.781609 36.781609 0 0 1 0-51.494253 36.781609 36.781609 0 0 1 52.229885 0L367.816092 706.942529a36.781609 36.781609 0 0 1-25.747126 62.528735zM1002.666667 603.954023a37.517241 37.517241 0 0 1-26.482759-11.034483L809.195402 427.402299a36.781609 36.781609 0 0 1 0-51.494253 36.781609 36.781609 0 0 1 52.229885 0L1029.885057 541.425287a36.781609 36.781609 0 0 1-25.747126 62.528736z" fill="#333333" p-id="2495"></path><path d="M837.149425 769.471264a37.517241 37.517241 0 0 1-26.482758-11.034482 36.781609 36.781609 0 0 1 0-51.494253l165.517241-165.517242a36.781609 36.781609 0 0 1 52.229885 0 36.781609 36.781609 0 0 1 0 51.494253l-165.517241 165.517242a36.781609 36.781609 0 0 1-25.747127 11.034482zM468.597701 843.034483a43.402299 43.402299 0 0 1-16.183908-3.678161 36.045977 36.045977 0 0 1-16.183908-49.287356l220.689655-441.379311a36.781609 36.781609 0 0 1 49.287357-16.91954 36.045977 36.045977 0 0 1 16.183908 49.287356l-220.689656 441.379311a36.045977 36.045977 0 0 1-33.103448 20.597701z" fill="#333333" p-id="2496"></path></svg>