<?xml version="1.0" standalone="no"?><!DOCTYPE svg PUBLIC "-//W3C//DTD SVG 1.1//EN" "http://www.w3.org/Graphics/SVG/1.1/DTD/svg11.dtd"><svg t="1578362347786" class="icon" viewBox="0 0 1024 1024" version="1.1" xmlns="http://www.w3.org/2000/svg" p-id="3919" xmlns:xlink="http://www.w3.org/1999/xlink" width="48" height="48"><defs><style type="text/css"></style></defs><path d="M347.974 344.605h60.662v470.016h-60.662zM712.982 518.563c-121.568 0-220.119 98.551-220.119 220.118s98.55 220.117 220.119 220.117c121.566 0 220.117-98.55 220.117-220.117s-98.55-220.118-220.117-220.118z m89.005 360.889H584.025c-10.979 0-19.909-9.666-19.909-21.548 0-11.878 8.944-21.543 19.938-21.543h217.911c10.995 0 19.94 9.665 19.94 21.543 0.001 11.882-8.934 21.548-19.918 21.548zM564.116 749.926c0-11.879 8.966-21.542 19.987-21.542h196.255c11.022 0 19.99 9.663 19.99 21.542 0 11.884-8.964 21.549-19.979 21.549H584.096c-11.016 0-19.98-9.665-19.98-21.549zM857.127 663.5H583.973c-10.949 0-19.856-9.662-19.856-21.54 0-11.883 8.965-21.55 19.982-21.55h272.912c11.017 0 19.979 9.667 19.979 21.55 0 11.878-8.911 21.54-19.863 21.54zM607.698 491.062V344.605h-60.667v183.298a270.258 270.258 0 0 1 60.667-36.841z"  p-id="3920"></path><path d="M493.484 891.788l-272.402 0.829V267.916h511.394l0.186 200.937c21.859 1.306 43.021 5.197 63.177 11.395V267.916h61.426v-63.428H686.844v-84.014c0-31.014-27.844-55.273-63.427-55.273H330.074c-35.579 0-63.423 24.291-63.423 55.273v84.014H90.9v63.428h66.725v624.701c0 34.121 28.443 61.87 63.422 61.87h332.425a271.814 271.814 0 0 1-59.988-62.699z m-163.41-763.164h293.343v75.864H330.074v-75.864z"  p-id="3921"></path></svg>
