<?xml version="1.0" standalone="no"?><!DOCTYPE svg PUBLIC "-//W3C//DTD SVG 1.1//EN" "http://www.w3.org/Graphics/SVG/1.1/DTD/svg11.dtd"><svg t="1576574836307" class="icon" viewBox="0 0 1024 1024" version="1.1" xmlns="http://www.w3.org/2000/svg" p-id="12937" xmlns:xlink="http://www.w3.org/1999/xlink" width="32" height="32"><defs><style type="text/css"></style></defs><path d="M811.683 56.945C734.026 23.996 629.126 5.95 516.075 5.95S298.007 24.113 220.467 56.945c-79.52 33.764-123.18 80.451-123.18 131.563V828.39c0 50.297 43.777 96.867 123.18 130.748 78.006 33.414 183.023 51.81 295.492 51.81 113.05 0 218.067-18.163 295.608-50.995 79.52-33.764 123.18-80.451 123.18-131.563V188.508c0.232-51.228-43.544-97.915-123.064-131.563z m-38.42 638.02c-70.206 23.635-161.602 36.674-257.188 36.674s-186.632-12.69-256.489-35.743c-67.644-22.354-106.414-52.275-106.414-82.08v-111.77c32.018 25.031 82.314 46.105 145.301 60.89 64.384 15.253 139.596 23.286 217.486 23.286s152.985-8.033 217.485-23.285c62.987-14.903 113.283-35.976 145.3-60.892v111.77c0.117 28.99-38.304 58.563-105.482 81.15z m0-207.706c-70.206 24.45-161.485 37.839-257.188 37.839-95.703 0-186.632-13.04-256.372-36.907-67.644-23.053-106.414-54.022-106.414-84.876V287.936c32.017 25.847 82.313 47.619 145.3 62.87 64.5 15.719 139.596 23.985 217.486 23.985s152.985-8.266 217.485-23.984c62.987-15.252 113.284-37.024 145.301-62.87v115.495c0 29.922-38.42 60.425-105.599 83.827zM153.288 705.91c32.017 25.847 82.313 47.619 145.3 62.987 64.5 15.718 139.713 24.1 217.486 24.1s152.985-8.382 217.485-24.1c62.987-15.368 113.284-37.14 145.301-62.987v115.728c0 30.039-38.42 60.659-105.599 83.944-70.205 24.45-161.484 37.955-257.187 37.955s-186.632-13.04-256.372-36.907c-67.644-23.169-106.414-54.022-106.414-84.875V705.909z m619.973-430.547c-70.205 24.916-161.484 38.77-257.187 38.77s-186.632-13.389-256.372-37.722c-67.644-23.635-106.414-55.303-106.414-86.854s38.77-63.22 106.414-86.855C329.326 78.368 420.488 64.98 516.075 64.98c95.703 0 186.632 13.389 256.372 37.722 67.644 23.635 106.53 55.42 106.53 86.855-0.116 30.62-38.537 61.939-105.715 85.806z" p-id="12938"></path></svg>