<?xml version="1.0" standalone="no"?><!DOCTYPE svg PUBLIC "-//W3C//DTD SVG 1.1//EN" "http://www.w3.org/Graphics/SVG/1.1/DTD/svg11.dtd"><svg t="1578275334957" class="icon" viewBox="0 0 1024 1024" version="1.1" xmlns="http://www.w3.org/2000/svg" p-id="3370" xmlns:xlink="http://www.w3.org/1999/xlink" width="48" height="48"><defs><style type="text/css"></style></defs><path d="M879.167 674.627c-7.062 12.176-22.195 28.984-45.642 49.925-25.473 23.379-41.11 40.672-46.908 51.871-5.803 11.2-8.58 29.467-8.58 55.285h-42.612c0.754-23.379 4.789-43.105 11.6-59.183 7.062-16.072 22.187-35.797 45.9-59.176 23.447-23.38 38.329-39.937 44.377-49.681 6.056-9.739 9.078-21.915 9.078-36.771 0-22.163-7.561-39.937-22.44-53.577-14.882-13.392-35.308-20.21-60.776-20.21-54.977 0-84.985 31.419-90.032 93.999H633.04c0.755-24.107 4.035-43.104 9.581-56.737 5.552-13.642 14.88-26.31 27.993-37.506 13.11-11.198 27.739-19.727 44.13-24.843a158.981 158.981 0 0 1 50.181-8.037c36.565 0 66.328 9.987 89.523 29.955 23.202 19.97 34.803 47.007 34.803 80.61 0.258 17.045-3.028 31.901-10.085 44.076zM794.95 451.518V217.956c0-45.962-36.597-83.221-81.741-83.221H263.636c-45.143 0-81.74 37.26-81.74 83.221v540.927c0 45.962 36.597 83.22 81.74 83.22h295.518v0.008h72.411l-25.247 47.151H229.054c-52.09 0-94.316-42.227-94.316-94.316V181.894c0-52.09 42.227-94.317 94.316-94.317H747.79c52.09 0 94.316 42.227 94.316 94.317v267.024l-1.393 2.6H794.95zM558.642 559.166H229.554a0.512 0.512 0 0 1-0.512-0.512v-46.143a0.512 0.512 0 0 1 0.512-0.512h329.088a0.512 0.512 0 0 1 0.512 0.512v46.143a0.512 0.512 0 0 1-0.512 0.512z m141.472-282.943h-470.56a0.512 0.512 0 0 1-0.512-0.512v-46.145a0.512 0.512 0 0 1 0.512-0.512h470.56a0.512 0.512 0 0 1 0.512 0.512v46.145a0.512 0.512 0 0 1-0.512 0.512z m0.512 140.96a0.512 0.512 0 0 1-0.512 0.512h-470.56a0.512 0.512 0 0 1-0.512-0.512v-46.144a0.512 0.512 0 0 1 0.512-0.512h470.56a0.512 0.512 0 0 1 0.512 0.512v46.144z m-471.584 330.08v-46.112a0.512 0.512 0 0 1 0.512-0.512h423.424a0.512 0.512 0 0 1 0.512 0.512v46.112a0.512 0.512 0 0 1-0.512 0.512H229.554a0.512 0.512 0 0 1-0.512-0.512z m553.289 189.155H734.92v-48.703h47.41v48.703z" fill="" p-id="3371"></path></svg>