<?xml version="1.0" standalone="no"?><!DOCTYPE svg PUBLIC "-//W3C//DTD SVG 1.1//EN" "http://www.w3.org/Graphics/SVG/1.1/DTD/svg11.dtd"><svg t="1576744631791" class="icon" viewBox="0 0 1160 1024" version="1.1" xmlns="http://www.w3.org/2000/svg" p-id="15304" xmlns:xlink="http://www.w3.org/1999/xlink" width="54.375" height="48"><defs><style type="text/css"></style></defs><path d="M948.224 52.155733l18.6368 18.6368a30.1056 30.1056 0 0 1 41.301333 0.887467c11.605333 11.605333 11.4688 30.72-0.4096 42.5984l-41.301333 41.3696 135.168 135.168c11.605333 11.605333 11.4688 30.72-0.4096 42.5984a30.173867 30.173867 0 0 1-42.666667 0.4096l-2.525866-2.594133-14.882134 14.882133 2.525867 2.594133c11.605333 11.605333 11.537067 30.72-0.341333 42.5984a30.173867 30.173867 0 0 1-42.666667 0.4096l-135.168-135.168-54.340267 54.408534 135.168 135.168c11.605333 11.605333 11.4688 30.72-0.4096 42.5984a30.173867 30.173867 0 0 1-42.666666 0.341333l-18.432 18.432c11.6736 11.6736 11.537067 30.72-0.341334 42.666667a30.173867 30.173867 0 0 1-42.666666 0.341333l-135.168-135.168L514.6624 607.573333c50.3808 95.300267 34.6112 217.4976-46.762667 298.939734-99.669333 99.5328-260.232533 101.034667-357.9904 3.140266C12.014933 811.8272 13.448533 651.264 113.0496 551.662933c81.237333-81.237333 203.1616-97.143467 298.325333-47.104L904.8064 11.332267a30.173867 30.173867 0 0 1 42.666667-0.341334c11.195733 11.195733 11.4688 29.354667 0.887466 41.233067zM365.909333 653.585067c-40.891733-40.823467-107.9296-40.277333-149.504 1.365333-41.642667 41.5744-42.257067 108.680533-1.365333 149.504 40.891733 40.96 107.9296 40.277333 149.504-1.297067 41.642667-41.642667 42.257067-108.680533 1.365333-149.504z" fill="#FFB000" p-id="15305"></path></svg>