<?xml version="1.0" standalone="no"?><!DOCTYPE svg PUBLIC "-//W3C//DTD SVG 1.1//EN" "http://www.w3.org/Graphics/SVG/1.1/DTD/svg11.dtd"><svg t="1576807334343" class="icon" viewBox="0 0 1025 1024" version="1.1" xmlns="http://www.w3.org/2000/svg" p-id="12130" xmlns:xlink="http://www.w3.org/1999/xlink" width="48.046875" height="48"><defs><style type="text/css"></style></defs><path d="M499.84 620.032L14.976 377.856c-19.968-10.24-19.968-38.912 0-48.64l484.864-242.688c7.68-4.096 16.896-4.096 24.576 0l484.864 242.176c19.968 10.24 19.968 38.912 0 48.64L524.416 619.52c-7.68 4.608-16.896 4.608-24.576 0.512z" fill="" p-id="12131"></path><path d="M512.128 792.064L13.952 529.408C1.664 522.752-3.456 507.392 3.2 494.592c6.656-12.288 22.016-17.408 34.816-10.752l474.624 249.856 474.624-249.856c12.288-6.656 28.16-1.536 34.816 10.752s1.536 28.16-10.752 34.816L512.128 792.064z" fill="" p-id="12132"></path><path d="M512.128 945.664L13.952 683.008c-12.288-6.656-17.408-22.016-10.752-34.816 6.656-12.288 22.016-17.408 34.816-10.752l474.624 249.856 474.624-249.856c12.288-6.656 28.16-1.536 34.816 10.752s1.536 28.16-10.752 34.816L512.128 945.664z" fill="" p-id="12133"></path></svg>