<?xml version="1.0" standalone="no"?><!DOCTYPE svg PUBLIC "-//W3C//DTD SVG 1.1//EN" "http://www.w3.org/Graphics/SVG/1.1/DTD/svg11.dtd"><svg t="1576574898344" class="icon" viewBox="0 0 1264 1024" version="1.1" xmlns="http://www.w3.org/2000/svg" p-id="14146" xmlns:xlink="http://www.w3.org/1999/xlink" width="39.5" height="32"><defs><style type="text/css"></style></defs><path d="M758.785235 674.580072H632.360145c-22.999855-0.395271-41.305862-15.922027-41.305863-38.934234s18.306007-40.058287 41.305863-40.453558h131.365983V79.363088h-684.313631v515.829192h215.694668c22.999855 0.395271 41.318215 17.416647 41.318215 40.428854s-18.318359 38.563667-41.318215 38.958938H84.303981A84.328685 84.328685 0 0 1 0 590.251387V84.303981A84.303981 84.303981 0 0 1 84.303981 0h674.431845a84.303981 84.303981 0 0 1 84.316333 84.303981v505.947406a84.328685 84.328685 0 0 1-84.316333 84.328685z" fill="#BCBCBC" p-id="14147"></path><path d="M505.848589 349.370519h126.42509c23.012207 0.395271 41.318215 15.922027 41.318215 38.921881s-18.306007 40.058287-41.318215 40.453559H500.907696v515.829192h684.313631V428.745959H969.539011c-23.012207-0.395271-41.330567-17.416647-41.330567-40.416502s18.318359-38.563667 41.330567-38.958938h210.790832a84.316333 84.316333 0 0 1 84.303981 84.316333v505.947406a84.303981 84.303981 0 0 1-84.303981 84.365742h-674.431845a84.316333 84.316333 0 0 1-84.316333-84.303981V433.686852a84.328685 84.328685 0 0 1 84.316333-84.316333z" fill="#BCBCBC" p-id="14148"></path></svg>