<?xml version="1.0" standalone="no"?><!DOCTYPE svg PUBLIC "-//W3C//DTD SVG 1.1//EN" "http://www.w3.org/Graphics/SVG/1.1/DTD/svg11.dtd"><svg t="1578274959823" class="icon" viewBox="0 0 1024 1024" version="1.1" xmlns="http://www.w3.org/2000/svg" p-id="1906" xmlns:xlink="http://www.w3.org/1999/xlink" width="48" height="48"><defs><style type="text/css"></style></defs><path d="M848.364 184.417h-71.016v-58.306c0-34.994-28.482-63.478-63.478-63.478H146.566c-34.995 0-63.478 28.484-63.478 63.478v649.443c0 34.995 28.483 63.478 63.478 63.478h71.002v58.306c0 34.995 28.483 63.478 63.478 63.478h567.318c35.008 0 63.478-28.482 63.478-63.478V247.895c0-34.994-28.47-63.478-63.478-63.478zM146.566 782.996c-4.104 0-7.443-3.338-7.443-7.443V126.111c0-4.104 3.338-7.443 7.443-7.443h567.305c4.104 0 7.443 3.338 7.443 7.443v58.306H281.045c-34.994 0-63.478 28.483-63.478 63.478v535.1h-71z m709.24 114.342c0 4.104-3.338 7.443-7.441 7.443h-567.32c-4.103 0-7.442-3.338-7.442-7.443V247.895c0-4.104 3.338-7.443 7.442-7.443h567.319c4.103 0 7.441 3.338 7.441 7.443v649.443z" p-id="1907"></path><path d="M572.92 676.589H413.008c-15.473 0-28.018 12.53-28.018 28.017s12.545 28.018 28.018 28.018H572.92c15.473 0 28.018-12.532 28.018-28.018s-12.545-28.017-28.018-28.017z m146.272-151.58H413.008c-15.473 0-28.018 12.53-28.018 28.017s12.545 28.018 28.018 28.018h306.184c15.473 0 28.018-12.532 28.018-28.018s-12.545-28.018-28.018-28.018z m0-146.027H413.008c-15.473 0-28.018 12.531-28.018 28.018s12.545 28.017 28.018 28.017h306.184c15.473 0 28.018-12.531 28.018-28.017s-12.545-28.018-28.018-28.018z" p-id="1908"></path></svg>