<?xml version="1.0" standalone="no"?><!DOCTYPE svg PUBLIC "-//W3C//DTD SVG 1.1//EN" "http://www.w3.org/Graphics/SVG/1.1/DTD/svg11.dtd"><svg t="1576475634073" class="icon" viewBox="0 0 1024 1024" version="1.1" xmlns="http://www.w3.org/2000/svg" p-id="1856" width="32" height="32" xmlns:xlink="http://www.w3.org/1999/xlink"><defs><style type="text/css"></style></defs><path d="M896 576V128a64 64 0 0 0-64-64H192a64 64 0 0 0-64 64v768a64 64 0 0 0 64 64h320v64H192a128 128 0 0 1-128-128V128a128 128 0 0 1 128-128h640a128 128 0 0 1 128 128v448h-64zM256 256h512v64H256V256z m0 448v-64h128v64H256z m0-256h256v64H256V448z m192 256a192 192 0 1 1 384 0c0 36.544-10.752 70.4-28.544 99.456l133.888 133.888a32 32 0 1 1-45.248 45.312l-130.88-130.88A190.08 190.08 0 0 1 640 896a192 192 0 0 1-192-192z m320 0a128 128 0 1 0-255.936-0.064A128 128 0 0 0 768 704z" p-id="1857"></path></svg>