<?xml version="1.0" standalone="no"?><!DOCTYPE svg PUBLIC "-//W3C//DTD SVG 1.1//EN" "http://www.w3.org/Graphics/SVG/1.1/DTD/svg11.dtd"><svg t="1576748238108" class="icon" viewBox="0 0 1024 1024" version="1.1" xmlns="http://www.w3.org/2000/svg" p-id="16154" xmlns:xlink="http://www.w3.org/1999/xlink" width="48" height="48"><defs><style type="text/css"></style></defs><path d="M513.061169 790.369985c-127.46916 0-234.296187-86.961584-266.322601-205.064422l119.312386 23.384593c15.32401 2.334161 29.562293-8.243755 31.803333-23.627117l4.054339-27.856441c2.238994-15.383362-8.365528-29.748534-23.689538-32.082696l-206.797903-40.530089c-6.9022-1.051959-15.196097 0.825808-21.030989 5.41636-5.616928 4.27742-7.77815 10.695596-10.770298 18.210757L67.553559 710.026122c-6.939039 13.916964-1.358951 30.861892 12.461823 37.849026l25.029046 12.651135c13.820774 6.987135 30.653137 1.367137 37.592177-12.546757l35.790134-91.793636C234.103806 786.80581 362.931916 878.337479 513.061169 878.337479c116.977201 0 220.650399-55.802934 287.128463-142.15872l-86.423325-33.004695C663.339824 756.766656 592.169901 790.369985 513.061169 790.369985zM943.619298 275.712459l-24.805966-12.648065c-13.703093-6.987135-30.386054-1.370207-37.262672 12.543687l-35.474956 91.777263C790.887778 236.785891 663.192468 145.271618 514.38635 145.271618c-115.945709 0-218.707141 55.791677-284.60192 142.133138l85.661985 32.999578c49.983391-53.581336 120.527051-87.178525 198.939935-87.178525 126.346593 0 232.235249 86.947258 263.980253 205.027583l-118.263497-23.379477c-15.188934-2.334161-29.302373 8.241708-31.521924 23.622l-4.02057 27.851325c-2.218528 15.383362 8.29185 29.745465 23.480784 32.079626l204.979488 40.521902c6.842849 1.051959 13.305027-0.803295 18.721387-4.251837 0 0 6.591115-3.278673 12.797467-19.370163l71.431889-201.77347C962.850292 299.641451 957.319322 282.69857 943.619298 275.712459z" p-id="16155"></path></svg>