<?xml version="1.0" standalone="no"?><!DOCTYPE svg PUBLIC "-//W3C//DTD SVG 1.1//EN" "http://www.w3.org/Graphics/SVG/1.1/DTD/svg11.dtd"><svg t="1576475690722" class="icon" viewBox="0 0 1024 1024" version="1.1" xmlns="http://www.w3.org/2000/svg" p-id="2815" xmlns:xlink="http://www.w3.org/1999/xlink" width="32" height="32"><defs><style type="text/css"></style></defs><path d="M514.19136 661.13536a23.98208 23.98208 0 0 1-17.8176-40.09984l288.95232-320.04096a24.00256 24.00256 0 0 1 35.6352 32.17408L532.04992 653.23008a24.08448 24.08448 0 0 1-17.85856 7.90528z" p-id="2816"></path><path d="M885.76 176.14848l-22.016 645.18144-254.44352-119.88992a97.32096 97.32096 0 0 0-41.28768-9.25696 97.0752 97.0752 0 0 0-48.5376 13.06624l-112.9472 65.3312 2.56-98.65216a99.1232 99.1232 0 0 0-58.01984-93.30688L181.82144 502.1696 885.76 176.14848z m48.66048-99.45088c-3.44064 0-6.98368 0.73728-10.4448 2.33472L63.11936 477.73696c-20.70528 9.60512-20.56192 40.5504 0.22528 49.95072l258.06848 116.55168c9.74848 4.4032 15.95392 14.62272 15.6672 25.78432l-4.66944 179.85536c-0.4096 16.15872 12.12416 28.01664 25.9072 28.01664 4.13696 0 8.3968-1.08544 12.43136-3.42016l184.832-106.92608a24.8832 24.8832 0 0 1 23.04-0.98304l318.3616 150.016c3.50208 1.6384 7.08608 2.41664 10.58816 2.41664 13.29152 0 25.33376-10.99776 25.86624-26.29632L960.3072 104.89856c0.512-16.05632-11.91936-28.20096-25.88672-28.20096" p-id="2817"></path></svg>