<?xml version="1.0" standalone="no"?><!DOCTYPE svg PUBLIC "-//W3C//DTD SVG 1.1//EN" "http://www.w3.org/Graphics/SVG/1.1/DTD/svg11.dtd"><svg t="1576725716908" class="icon" viewBox="0 0 1024 1024" version="1.1" xmlns="http://www.w3.org/2000/svg" p-id="8248" width="48" height="48" xmlns:xlink="http://www.w3.org/1999/xlink"><defs><style type="text/css"></style></defs><path d="M622.656344 1019.627256a39.32848 39.32848 0 0 1-36.415259-26.947292L406.349704 452.277518a38.600175 38.600175 0 0 1 0-28.403902 34.958649 34.958649 0 0 1 21.849156-18.935934 32.773733 32.773733 0 0 1 11.652883 0h11.652883l541.859056 180.619685a36.415259 36.415259 0 0 1 21.849155 18.207629 34.958649 34.958649 0 0 1 0 28.403903 37.143564 37.143564 0 0 1-17.479324 21.849155l-152.944089 80.11357 145.661037 145.661037a40.056785 40.056785 0 0 1 10.924578 26.218986 37.871869 37.871869 0 0 1-11.652883 26.947292l-64.090856 64.090856a34.958649 34.958649 0 0 1-26.218987 10.924578 35.686954 35.686954 0 0 1-26.218987-10.924578l-145.661036-145.661037-72.830518 152.944089a36.415259 36.415259 0 0 1-32.773734 19.66424z m14.566103-184.989517l64.090856-131.823238 134.736459-72.830518-298.605125-95.407979z" p-id="8249"></path><path d="M109.929495 879.792661A108.517472 108.517472 0 0 1 1.412023 772.003494V107.789167A108.517472 108.517472 0 0 1 109.929495 0h741.414676a109.245777 109.245777 0 0 1 108.517472 107.789167v320.45428a48.796447 48.796447 0 1 1-97.592894 0v-320.45428a10.924578 10.924578 0 0 0-10.924578-10.196273H109.929495a10.924578 10.924578 0 0 0-10.924578 10.196273v664.214327a10.924578 10.924578 0 0 0 10.924578 10.196272h233.057659a48.796447 48.796447 0 1 1 0 97.592895z" p-id="8250"></path></svg>