<?xml version="1.0" standalone="no"?><!DOCTYPE svg PUBLIC "-//W3C//DTD SVG 1.1//EN" "http://www.w3.org/Graphics/SVG/1.1/DTD/svg11.dtd"><svg t="1578274992899" class="icon" viewBox="0 0 1024 1024" version="1.1" xmlns="http://www.w3.org/2000/svg" p-id="2657" xmlns:xlink="http://www.w3.org/1999/xlink" width="48" height="48"><defs><style type="text/css"></style></defs><path d="M660.096 561.728L522.976 209.056l-149.728 281.728-83.584-85.952-141.408 88.096 39.872 23.008 90.624-56.48 109.344 112.576 126.624-238.144 139.968 360.224 119.392-251.328 48.64 103.52 53.344-8.928-101.696-216.288z" fill="" p-id="2658"></path><path d="M923.296 64.096H99.936A99.968 99.968 0 0 0 0 164.032v567.552a99.968 99.968 0 0 0 99.936 99.936h379.712v63.968H223.84a31.904 31.904 0 0 0-31.968 31.968c0 17.696 14.272 31.968 31.968 31.968h575.552a31.936 31.936 0 1 0 0-63.936h-255.808v-63.968h379.712a99.968 99.968 0 0 0 99.936-99.936V164.032a99.936 99.936 0 0 0-99.936-99.936z m35.968 667.488c0 19.872-16.096 35.968-35.968 35.968H99.936a35.968 35.968 0 0 1-35.968-35.968V164.032c0-19.872 16.096-35.968 35.968-35.968h823.36c19.872 0 35.968 16.096 35.968 35.968v567.552z m0 0" fill="" p-id="2659"></path></svg>